# Blender v3.4.1 OBJ File: ''
# www.blender.org
mtllib temple.mtl
o Cube
v 0.000000 1.000000 0.000000
v 1.000000 -1.000000 -1.000000
v 1.000000 -1.435956 -1.000000
v 1.000000 -1.000000 1.000000
v -1.000000 -1.435956 1.000000
v -1.000000 -1.000000 -1.000000
v -1.000000 -1.435956 -1.000000
v -1.000000 -1.000000 1.000000
v 1.000000 -1.435956 1.000000
v 2.442485 -2.316618 2.442485
v 2.442485 -2.316618 -2.442485
v -2.442485 -2.316618 2.442485
v -2.442485 -2.316618 -2.442485
v 1.485970 -2.316618 1.485970
v 1.485970 -2.316618 -1.485970
v -1.485970 -2.316618 1.485970
v -1.485970 -2.316618 -1.485970
v 1.485970 -4.779486 1.485970
v 1.485970 -4.779486 -1.485970
v -1.485970 -4.779486 1.485970
v -1.485970 -4.779486 -1.485970
v 1.485970 -4.936544 1.485970
v 1.485970 -4.936544 -1.485970
v -1.485970 -4.936544 1.485970
v -1.485970 -4.936544 -1.485970
v 3.674181 -4.936544 3.674181
v 3.674181 -4.936544 -3.674181
v -3.674181 -4.936544 3.674181
v -3.674181 -4.936544 -3.674181
v 3.674181 -5.205308 3.674181
v 3.674181 -5.205308 -3.674181
v -3.674181 -5.205308 3.674181
v -3.674181 -5.205308 -3.674181
v 0.523984 -3.028836 -1.485970
v -0.523984 -3.028836 -1.485970
v 0.523984 -4.774606 -1.485970
v -0.523984 -4.774606 -1.485970
v 0.523984 -3.028836 -1.618739
v -0.523984 -3.028836 -1.618739
v 0.523984 -4.774606 -1.618739
v -0.523984 -4.774606 -1.618739
v -1.485970 -3.066194 -0.581458
v -1.485970 -3.066194 0.581458
v -1.485970 -4.029910 -0.581458
v -1.485970 -4.029910 0.581458
v -1.565648 -3.066194 -0.581458
v -1.565648 -3.066194 0.581458
v -1.565648 -4.029910 -0.581458
v -1.565648 -4.029910 0.581458
v 1.485970 -3.100188 0.540438
v 1.485970 -3.100188 -0.540438
v 1.485970 -3.995916 0.540438
v 1.485970 -3.995916 -0.540438
v 1.637052 -3.100188 0.540438
v 1.637052 -3.100188 -0.540438
v 1.637052 -3.995916 0.540438
v 1.637052 -3.995916 -0.540438
v -1.721243 -1.876287 -1.721243
v -1.721243 -1.876287 1.721243
v 1.721243 -1.876287 -1.721243
v 1.721243 -1.876287 1.721243
v -2.081864 -2.096452 -2.081864
v 2.081864 -2.096452 -2.081864
v -2.081864 -2.096452 2.081864
v 2.081864 -2.096452 2.081864
v -0.752573 -0.505145 -0.257718
v -0.752573 -0.505145 0.257718
v -0.494855 0.010291 0.000000
v -0.406570 -0.604380 0.802190
v 0.406570 -0.604380 0.802190
v 0.000000 0.208760 0.395620
v 0.460856 0.078288 0.000000
v 0.769572 -0.539144 -0.308716
v 0.769572 -0.539144 0.308716
v 0.326969 -0.551313 -0.775656
v -0.326969 -0.551313 -0.775656
v 0.000000 0.102626 -0.448687
vt 0.375000 1.000000
vt 0.375000 0.750000
vt 0.375000 0.750000
vt 0.625000 0.750000
vt 0.375000 0.750000
vt 0.375000 0.250000
vt 0.625000 0.500000
vt 0.625000 0.500000
vt 0.375000 0.500000
vt 0.375000 0.250000
vt 0.625000 0.750000
vt 0.625000 0.750000
vt 0.625000 0.500000
vt 0.375000 0.250000
vt 0.375000 0.250000
vt 0.375000 0.000000
vt 0.375000 0.000000
vt 0.375000 0.000000
vt 0.375000 0.000000
vt 0.375000 0.500000
vt 0.375000 0.250000
vt 0.375000 0.000000
vt 0.375000 0.500000
vt 0.375000 1.000000
vt 0.375000 0.750000
vt 0.375000 0.750000
vt 0.375000 0.500000
vt 0.375000 0.250000
vt 0.375000 0.500000
vt 0.375000 0.500000
vt 0.375000 1.000000
vt 0.375000 0.750000
vt 0.375000 0.250000
vt 0.375000 0.500000
vt 0.375000 0.250000
vt 0.375000 0.750000
vt 0.375000 0.750000
vt 0.375000 1.000000
vt 0.375000 1.000000
vt 0.375000 1.000000
vt 0.375000 0.000000
vt 0.375000 0.000000
vt 0.375000 0.500000
vt 0.375000 0.000000
vt 0.375000 0.750000
vt 0.375000 0.500000
vt 0.375000 0.250000
vt 0.375000 0.250000
vt 0.375000 1.000000
vt 0.375000 0.750000
vt 0.375000 0.500000
vt 0.125000 0.750000
vt 0.125000 0.500000
vt 0.375000 0.000000
vt 0.375000 1.000000
vt 0.375000 0.750000
vt 0.375000 0.250000
vt 0.375000 0.250000
vt 0.375000 0.250000
vt 0.375000 0.500000
vt 0.375000 0.500000
vt 0.375000 0.250000
vt 0.375000 0.500000
vt 0.375000 0.250000
vt 0.375000 0.000000
vt 0.375000 0.000000
vt 0.375000 0.250000
vt 0.375000 0.250000
vt 0.375000 0.000000
vt 0.375000 1.000000
vt 0.375000 1.000000
vt 0.375000 0.000000
vt 0.375000 0.250000
vt 0.375000 0.750000
vt 0.375000 0.750000
vt 0.375000 0.500000
vt 0.375000 0.500000
vt 0.375000 0.500000
vt 0.375000 0.500000
vt 0.375000 0.750000
vt 0.375000 0.500000
vt 0.375000 1.000000
vt 0.375000 0.750000
vt 0.375000 0.250000
vt 0.375000 0.000000
vt 0.375000 1.000000
vt 0.375000 0.000000
vt 0.625000 0.250000
vt 0.375000 0.250000
vt 0.625000 1.000000
vt 0.375000 1.000000
vt 0.625000 1.000000
vt 0.375000 1.000000
vt 0.625000 1.000000
vt 0.375000 0.500000
vt 0.375000 0.750000
vt 0.625000 0.500000
vt 0.375000 0.500000
vt 0.375000 1.000000
vt 0.375000 1.000000
vn 0.0000 0.0000 1.0000
vn 0.0000 0.4472 0.8944
vn -0.8944 0.4472 0.0000
vn 0.0000 0.0000 -1.0000
vn 0.8944 0.4472 0.0000
vn 0.0000 0.4472 -0.8944
vn -0.5211 0.8535 0.0000
vn -1.0000 0.0000 0.0000
vn 1.0000 0.0000 0.0000
vn 0.0000 -1.0000 0.0000
vn 0.0000 0.8535 -0.5211
vn 0.0000 0.8535 0.5211
vn 0.5211 0.8535 0.0000
vn 0.0000 1.0000 0.0000
usemtl Material
s off
f 8/1/1 9/2/1 4/3/1
f 4/3/2 71/4/2 70/5/2
f 6/6/3 68/7/3 1/8/3
f 2/9/4 7/10/4 6/6/4
f 4/3/5 72/11/5 1/12/5
f 6/6/6 77/13/6 76/14/6
f 62/15/7 12/16/7 64/17/7
f 6/6/8 5/18/8 8/19/8
f 4/3/9 3/20/9 2/9/9
f 13/21/10 16/22/10 12/16/10
f 63/23/11 13/21/11 62/15/11
f 64/24/12 10/25/12 65/26/12
f 65/26/13 11/27/13 63/23/13
f 21/28/4 36/29/4 19/30/4
f 12/31/10 14/32/10 10/25/10
f 11/27/10 17/33/10 13/21/10
f 10/25/10 15/34/10 11/27/10
f 19/30/4 25/35/4 21/28/4
f 18/36/9 50/37/9 14/32/9
f 16/38/8 45/39/8 20/40/8
f 16/38/1 18/36/1 14/32/1
f 25/35/14 28/41/14 24/42/14
f 18/36/9 23/43/9 19/30/9
f 21/28/8 24/42/8 20/44/8
f 20/40/1 22/45/1 18/36/1
f 27/46/4 33/47/4 29/48/4
f 24/49/14 26/50/14 22/45/14
f 23/43/14 29/48/14 25/35/14
f 22/45/14 27/46/14 23/43/14
f 31/51/10 32/52/10 33/53/10
f 26/50/9 31/51/9 27/46/9
f 29/48/8 32/54/8 28/41/8
f 28/55/1 30/56/1 26/50/1
f 35/57/8 41/58/8 37/59/8
f 15/34/4 35/57/4 17/33/4
f 21/28/4 35/57/4 37/59/4
f 19/30/4 34/60/4 15/34/4
f 38/61/4 41/58/4 39/62/4
f 37/59/10 40/63/10 36/29/10
f 36/29/9 38/61/9 34/60/9
f 34/60/14 39/62/14 35/57/14
f 42/64/14 47/65/14 43/66/14
f 17/33/8 44/67/8 42/64/8
f 20/44/8 44/67/8 21/28/8
f 17/33/8 43/66/8 16/22/8
f 46/68/8 49/69/8 47/65/8
f 43/70/1 49/71/1 45/39/1
f 45/72/10 48/73/10 44/67/10
f 44/67/4 46/68/4 42/64/4
f 52/74/1 54/75/1 50/37/1
f 15/34/9 53/76/9 19/30/9
f 19/30/9 52/74/9 18/36/9
f 14/32/9 51/77/9 15/34/9
f 54/75/9 57/78/9 55/79/9
f 53/76/10 56/80/10 52/74/10
f 51/77/4 57/78/4 53/76/4
f 50/37/14 55/79/14 51/77/14
f 9/2/13 60/81/13 3/20/13
f 5/82/12 61/83/12 9/2/12
f 3/20/11 58/84/11 7/10/11
f 7/10/7 59/85/7 5/18/7
f 61/83/13 63/23/13 60/81/13
f 59/86/12 65/26/12 61/83/12
f 60/81/11 62/15/11 58/84/11
f 58/84/7 64/17/7 59/85/7
f 67/87/3 68/88/3 66/89/3
f 8/1/3 68/90/3 67/91/3
f 8/19/3 66/89/3 6/6/3
f 70/5/2 71/92/2 69/93/2
f 8/1/2 71/92/2 1/94/2
f 4/3/2 69/93/2 8/1/2
f 73/95/5 72/11/5 74/96/5
f 2/9/5 74/96/5 4/3/5
f 2/9/5 72/97/5 73/95/5
f 76/14/6 77/13/6 75/98/6
f 2/9/6 77/13/6 1/8/6
f 6/6/6 75/98/6 2/9/6
f 8/1/1 5/82/1 9/2/1
f 4/3/2 1/12/2 71/4/2
f 6/6/3 66/89/3 68/7/3
f 2/9/4 3/20/4 7/10/4
f 4/3/5 74/96/5 72/11/5
f 6/6/6 1/8/6 77/13/6
f 62/15/7 13/21/7 12/16/7
f 6/6/8 7/10/8 5/18/8
f 4/3/9 9/2/9 3/20/9
f 13/21/10 17/33/10 16/22/10
f 63/23/11 11/27/11 13/21/11
f 64/24/12 12/31/12 10/25/12
f 65/26/13 10/25/13 11/27/13
f 21/28/4 37/59/4 36/29/4
f 12/31/10 16/38/10 14/32/10
f 11/27/10 15/34/10 17/33/10
f 10/25/10 14/32/10 15/34/10
f 19/30/4 23/43/4 25/35/4
f 18/36/9 52/74/9 50/37/9
f 16/38/8 43/70/8 45/39/8
f 16/38/1 20/40/1 18/36/1
f 25/35/14 29/48/14 28/41/14
f 18/36/9 22/45/9 23/43/9
f 21/28/8 25/35/8 24/42/8
f 20/40/1 24/49/1 22/45/1
f 27/46/4 31/51/4 33/47/4
f 24/49/14 28/55/14 26/50/14
f 23/43/14 27/46/14 29/48/14
f 22/45/14 26/50/14 27/46/14
f 31/51/10 30/56/10 32/52/10
f 26/50/9 30/56/9 31/51/9
f 29/48/8 33/47/8 32/54/8
f 28/55/1 32/99/1 30/56/1
f 35/57/8 39/62/8 41/58/8
f 15/34/4 34/60/4 35/57/4
f 21/28/4 17/33/4 35/57/4
f 19/30/4 36/29/4 34/60/4
f 38/61/4 40/63/4 41/58/4
f 37/59/10 41/58/10 40/63/10
f 36/29/9 40/63/9 38/61/9
f 34/60/14 38/61/14 39/62/14
f 42/64/14 46/68/14 47/65/14
f 17/33/8 21/28/8 44/67/8
f 20/44/8 45/72/8 44/67/8
f 17/33/8 42/64/8 43/66/8
f 46/68/8 48/73/8 49/69/8
f 43/70/1 47/100/1 49/71/1
f 45/72/10 49/69/10 48/73/10
f 44/67/4 48/73/4 46/68/4
f 52/74/1 56/80/1 54/75/1
f 15/34/9 51/77/9 53/76/9
f 19/30/9 53/76/9 52/74/9
f 14/32/9 50/37/9 51/77/9
f 54/75/9 56/80/9 57/78/9
f 53/76/10 57/78/10 56/80/10
f 51/77/4 55/79/4 57/78/4
f 50/37/14 54/75/14 55/79/14
f 9/2/13 61/83/13 60/81/13
f 5/82/12 59/86/12 61/83/12
f 3/20/11 60/81/11 58/84/11
f 7/10/7 58/84/7 59/85/7
f 61/83/13 65/26/13 63/23/13
f 59/86/12 64/24/12 65/26/12
f 60/81/11 63/23/11 62/15/11
f 58/84/7 62/15/7 64/17/7
f 8/1/3 1/94/3 68/90/3
f 8/19/3 67/87/3 66/89/3
f 8/1/2 69/93/2 71/92/2
f 4/3/2 70/5/2 69/93/2
f 2/9/5 73/95/5 74/96/5
f 2/9/5 1/8/5 72/97/5
f 2/9/6 75/98/6 77/13/6
f 6/6/6 76/14/6 75/98/6
